<?xml version="1.0"?>
<svg xmlns="http://www.w3.org/2000/svg" version="1.0" width="512px" height="512px" viewBox="0 0 5000.000000 5000.000000"
     preserveAspectRatio="xMidYMid meet" class="">
  <g>
    <g transform="translate(0.000000,5000.000000) scale(0.100000,-0.100000)" fill="#000000" stroke="none">
      <path
        d="M25720 38198 l0 -11803 74 75 c2186 2210 11576 11725 11576 11729 0 5 -6512 6603 -11251 11399 l-399 404 0 -11804z m5639 2424 c1359 -1377 2471 -2506 2471 -2511 0 -8 -5327 -5314 -5341 -5319 -5 -2 -9 2015 -9 5370 l0 5373 204 -205 c112 -113 1316 -1331 2675 -2708z"
        data-original="#000000" class="active-path" data-old_color="#000000" fill="#005F5F"/>
      <path
        d="M39455 35945 c-4510 -4563 -8201 -8300 -8203 -8304 -3 -9 16466 -26 16475 -18 7 8 -57 16427 -65 16531 l-7 89 -8200 -8298z m5786 -1732 c21 -1979 38 -3685 39 -3790 l0 -193 -2057 1 c-1132 1 -2831 5 -3776 8 l-1719 6 3733 3787 c2054 2083 3735 3785 3738 3783 2 -2 21 -1623 42 -3602z"
        data-original="#000000" class="active-path" data-old_color="#000000" fill="#005F5F"/>
      <path
        d="M14860 43369 c-3699 -5 -6808 -10 -6910 -11 l-184 -3 8204 -8302 c4513 -4566 8207 -8300 8209 -8297 4 3 69 15086 71 16262 l0 362 -1332 -2 c-733 -1 -4359 -5 -8058 -9z m6940 -2711 c-1 -276 -79 -7481 -82 -7482 -4 -3 -7462 7563 -7466 7575 -2 5 1454 9 3772 9 l3776 0 0 -102z"
        data-original="#000000" class="active-path" data-old_color="#000000" fill="#005F5F"/>
      <path
        d="M5835 31584 c-3201 -3231 -5821 -5879 -5823 -5884 -3 -7 497 -10 1430 -10 788 -1 6052 -11 11698 -24 5646 -13 10266 -23 10267 -22 2 1 -10649 10712 -11295 11358 l-457 457 -5820 -5875z m8704 -668 c1338 -1346 2430 -2450 2427 -2453 -2 -2 -1930 0 -4283 6 -2353 6 -4745 11 -5316 11 -571 0 -1037 4 -1035 8 2 5 1184 1222 2628 2705 l2625 2696 261 -262 c144 -144 1356 -1364 2693 -2711z"
        data-original="#000000" class="active-path" data-old_color="#000000" fill="#005F5F"/>
      <path
        d="M38018 24411 c-6273 -14 -11409 -29 -11412 -32 -4 -4 10071 -10184 11448 -11567 l193 -194 5869 5902 c3228 3245 5871 5905 5872 5911 2 5 -106 8 -280 8 -155 -1 -5416 -14 -11690 -28z m5487 -2853 c-65 -67 -4455 -4490 -4999 -5036 l-331 -332 -2625 2696 c-1444 1483 -2626 2700 -2628 2705 -2 5 770 10 1890 10 1041 1 3027 5 4413 8 1386 4 2929 8 3430 9 l909 2 -59 -62z"
        data-original="#000000" class="active-path" data-old_color="#000000" fill="#005F5F"/>
      <path
        d="M6643 22968 c3 -695 18 -4381 32 -8193 14 -3811 29 -6983 33 -7048 l7 -118 8200 8297 c4510 4563 8201 8300 8203 8304 3 7 -9015 20 -13827 20 l-2654 0 6 -1262z m9260 -1357 l737 -6 -3732 -3786 c-2053 -2083 -3735 -3785 -3737 -3783 -3 3 -80 7032 -81 7407 l0 177 3038 -1 c1670 -1 3369 -5 3775 -8z"
        data-original="#000000" class="active-path" data-old_color="#000000" fill="#005F5F"/>
      <path
        d="M18850 18129 c-2967 -3005 -5588 -5658 -5823 -5895 l-428 -432 5823 -5896 5823 -5897 3 5896 c1 3242 1 8548 0 11791 l-3 5896 -5395 -5463z m2640 -6370 l0 -5371 -767 761 c-423 418 -1627 1617 -2676 2663 l-1908 1903 2673 2707 c1470 1489 2674 2707 2676 2707 1 1 2 -2416 2 -5370z"
        data-original="#000000" class="active-path" data-old_color="#000000" fill="#005F5F"/>
      <path
        d="M25724 22335 c3 -599 13 -4364 23 -8365 9 -4001 18 -7277 19 -7279 4 -4 16437 38 16440 42 2 2 -16073 16279 -16317 16522 l-171 170 6 -1090z m6560 -9510 l3516 -3560 -48 -7 c-26 -4 -1638 -23 -3582 -42 -1944 -20 -3605 -38 -3691 -41 l-157 -5 -6 743 c-3 408 -9 2137 -12 3842 l-6 3100 236 -235 c129 -129 1817 -1837 3750 -3795z"
        data-original="#000000" class="active-path" data-old_color="#000000" fill="#005F5F"/>
    </g>
  </g>
</svg>
